<svg xmlns="http://www.w3.org/2000/svg" width="1900" height="1080" preserveAspectRatio="none"><g mask="url(&quot;#SvgjsMask1011&quot;)" fill="none"><path fill="#111320" d="M0 0h1900v1080H0z"/><path d="M675 0c70.96 16.93 67.65 64.43 135 64.43 66.08 0 62.32-47.84 131.86-64.43 65.46-15.62 69.07 0 138.14 0h270c100 0 152.25-57.31 200 0 64.75 77.69-2.62 141.06 25 270 7.38 34.48 19.18 56.84 45 56.84 32.68 0 58.01-15.72 72-56.84 41.6-122.3-23.39-184.67 39.18-270 36.43-49.67 79.41 0 158.82 0 135 0 202.5-67.5 270 0s0 135 0 270v540c0 135 67.5 202.5 0 270s-135 0-270 0H540c-110 0-177.72 60.39-220 0-52.22-74.61 49.35-150.38 31-270-6.65-43.31-39.11-55.86-81-55.86-49.23 0-93.85 7.61-101.25 55.86-17.6 114.68 98.11 195.02 51.25 270-37.51 60.02-170.61 60.61-220 0-60.61-74.39 0-135 0-270V540 270C0 135-67.5 67.5 0 0s135 0 270 0h270c67.5 0 70.96-15.28 135 0" stroke="#275058" stroke-width="2"/><path d="M810 532.17c-87.67 17.53-180 3.17-180 7.83s102.08-26.96 180 10.8c147.08 71.28 147.52 210.24 270 207.28 101.11-2.44 177.19-127.85 177.19-218.08 0-63.81-84.8-88.38-177.19-90-131.2-2.3-132.67 54.7-270 82.17" stroke="rgba(8, 77, 89, 1)" stroke-width="2"/><path d="M1890 477.21c-22.21 0-49.09 28.84-49.09 62.79 0 47.45 27.42 100 49.09 100 20.64 0 35.53-51.55 35.53-100 0-32.94-15.43-62.79-35.53-62.79" stroke="#275058" stroke-width="2"/><path d="M1620 793.13c-23.6 0-47.65 9.44-47.65 16.87 0 7.24 23.96 12.46 47.65 12.46 20.38 0 40.5-5.26 40.5-12.46 0-7.46-20.02-16.87-40.5-16.87" stroke="rgba(8, 77, 89, 1)" stroke-width="2"/><path d="M270 135c-46.12 0-99.47 70.22-99.47 135 0 56.72 52.82 108 99.47 108 42.46 0 78.75-51.99 78.75-108 0-65.49-35.76-135-78.75-135" stroke="#275058" stroke-width="2"/><path d="M480 0c32.43 3.41 29.48 15.37 60 28.42C674.48 85.94 673.97 138.1 810 141.14c133.97 3 139.85-42.32 270-100.64 27.35-12.25 16.38-36.21 45-40.5 106.38-15.96 112.5 0 225 0 37.5 0 60.97-28.86 75 0 51.59 106.14 2.4 147.03 56.25 270 43.65 99.66 65.19 91.43 138.75 175.26 44.9 51.17 98.18 45.27 98.18 94.74 0 54.15-42.39 112.5-98.18 112.5-72.71 0-79.19-56.57-158.82-112.5-55.37-38.89-51.31-46.18-111.18-77.14-130.72-67.61-132.58-112.74-270-120-132.58-7-131.35 69.56-270 91.49-131.35 20.78-146.41-37.61-270-6.07-83.41 21.28-72 55.86-144 111.72-63 48.88-58.04 56.57-126 97.76C139.96 716.57 75.57 807.36 0 780c-59.43-21.52 0-120 0-240V270C0 135-67.5 67.5 0 0s135 0 270 0c105 0 107.43-10.8 210 0M1842 270c0-77.18 16.43-86.26 48-166.15 21.78-55.11 9.99-85.11 58.7-103.85 86.29-33.19 164.92-59.27 211.3 0 59.27 75.73 0 135 0 270v270c0 123 33.68 246 0 246-39.15 0-73.97-122.34-145.66-246-63.31-109.22-56.76-113.9-124.34-219.77-18.59-29.13-48-19.22-48-50.23" stroke="#275058" stroke-width="2"/><path d="M519.75 810c7.49-16.44 3.94-23.02 20.25-30 128.82-55.12 145.63-103.2 270-94.2 82.84 6 68.72 66.78 144.42 124.2 59.3 44.98 66.2 35.61 125.58 80.6 118.78 90.01 230.73 135.99 230.73 189.4 0 41.29-115.37 0-230.73 0-100.72 0-119.45 33.63-201.43 0-53.02-21.75-33.02-110.77-68.57-110.77-36.63 0-20.62 88.14-75.79 110.77-79.83 32.75-97.1 0-194.21 0-68.34 0-133.46 42.84-136.67 0-6.91-92.16 55.57-136.44 116.42-270M0 839.35c36.55 0 136.67 160.1 136.67 240.65 0 39.78-111.92 43.58-136.67 0-43.58-76.74-31.78-240.65 0-240.65M1398 1080c0-42.17 100.59-100.39 222-153.69 124.59-54.7 133.32-43.38 270-62.31 133.32-18.46 196.84-70.99 270-12.46 61.84 49.47 61.87 176.1 0 228.46-73.13 61.87-135 0-270 0h-270c-111 0-222 34.67-222 0M57.86 0c0 79.43-43.11 202.5-57.86 202.5-14.18 0-22.5-123.75 0-202.5 6.43-22.5 57.86-21.82 57.86 0M489.38 270c0-29.31 13.46-57.9 50.62-63.95 123.15-20.03 137.08-6.95 270 11.79 93.88 13.23 183.6 22.83 183.6 52.16 0 30.01-88.64 57.75-183.6 66.52-131.84 12.18-140.96 2.15-270-24.62-31.27-6.49-50.62-18.29-50.62-41.9" stroke="#275058" stroke-width="2"/><path d="M1200 270c0-53.05 94.67-135 150-135 38.42 0 37.5 70.59 37.5 135 0 30.64-9.91 55.1-37.5 55.1-66.16 0-150-13.1-150-55.1" stroke="rgba(8, 77, 89, 1)" stroke-width="2"/><path d="M0 286.88c60.39 0 213.16 152.16 213.16 253.12 0 70.6-136.43 90-213.16 90-29.85 0 0-45 0-90 0-126.56-46.19-253.12 0-253.12" stroke="#275058" stroke-width="2"/><path d="M2103.16 540c0-55.83 41.84-113.68 56.84-113.68 13.42 0 0 56.84 0 113.68 0 48 13.14 96 0 96-15.28 0-56.84-46.99-56.84-96" stroke="rgba(8, 77, 89, 1)" stroke-width="2"/><path d="M0 986.09c14.26 0 53.33 62.48 53.33 93.91 0 15.52-43.67 17.01-53.33 0-17.01-29.95-12.4-93.91 0-93.91" stroke="#275058" stroke-width="2"/><path d="M486.67 1080c0-39.9 22.41-113.68 53.33-113.68 33.64 0 75.79 77.12 75.79 113.68 0 20.28-37.9 0-75.79 0-26.66 0-53.33 16.94-53.33 0" stroke="rgba(8, 77, 89, 1)" stroke-width="2"/><path d="M985.71 1080c0-25.65 45.65-88.66 94.29-88.66 52.51 0 108 63.66 108 88.66 0 19.33-54 0-108 0-47.14 0-94.29 18.68-94.29 0M1548 1080c0-13.68 30.12-44.06 72-49.85 129.12-17.84 136.69-11.88 270 2.6 96.19 10.45 189 35.26 189 47.25 0 11.63-94.5 0-189 0h-270c-36 0-72 11.25-72 0" stroke="#275058" stroke-width="2"/></g><defs><mask id="SvgjsMask1011"><path fill="#fff" d="M0 0h1900v1080H0z"/></mask></defs></svg>